<?xml version="1.0" standalone="no"?>
<!DOCTYPE svg PUBLIC "-//W3C//DTD SVG 20010904//EN"
 "http://www.w3.org/TR/2001/REC-SVG-20010904/DTD/svg10.dtd">
<svg version="1.0" xmlns="http://www.w3.org/2000/svg"
 width="726.000000pt" height="726.000000pt" viewBox="0 0 726.000000 726.000000"
 preserveAspectRatio="xMidYMid meet">
<metadata>
Created by potrace 1.14, written by Peter Selinger 2001-2017
</metadata>
<g transform="translate(0.000000,726.000000) scale(0.100000,-0.100000)"
fill="#000000" stroke="none">
<path d="M4595 7248 c-22 -4 -68 -9 -103 -12 -35 -3 -68 -8 -73 -12 -6 -3 -29
-8 -51 -11 -23 -2 -49 -8 -59 -13 -9 -5 -19 -7 -21 -5 -3 3 -36 -4 -74 -16
-38 -12 -73 -22 -79 -24 -5 -1 -27 -9 -47 -19 -21 -9 -43 -16 -49 -16 -18 0
-295 -136 -303 -149 -4 -6 -14 -11 -22 -11 -8 0 -24 -9 -36 -20 -12 -11 -28
-20 -35 -20 -7 0 -13 -4 -13 -9 0 -5 -9 -13 -20 -16 -11 -3 -26 -12 -32 -19
-7 -6 -30 -22 -50 -35 -21 -12 -38 -27 -38 -32 0 -5 -6 -9 -14 -9 -8 0 -32
-16 -53 -36 -123 -117 -173 -167 -173 -173 0 -16 -61 -51 -97 -56 -21 -3 -51
-8 -68 -12 -16 -3 -41 -7 -55 -9 -14 -1 -43 -9 -65 -17 -22 -8 -63 -17 -92
-20 -28 -3 -66 -12 -85 -20 -27 -12 -92 -36 -118 -42 -3 -1 -14 -5 -25 -9 -51
-20 -91 -34 -100 -36 -29 -7 -43 -13 -77 -30 -20 -11 -46 -20 -58 -20 -12 0
-34 -7 -50 -15 -17 -9 -31 -15 -32 -14 -3 0 -51 -17 -78 -28 -8 -3 -17 -7 -20
-8 -19 -7 -49 -19 -75 -30 -101 -46 -149 -65 -164 -65 -9 0 -21 -4 -27 -9 -5
-5 -29 -16 -54 -25 -48 -16 -161 -61 -195 -76 -18 -8 -71 -30 -85 -35 -25 -8
-40 -14 -70 -24 -19 -7 -39 -14 -45 -15 -5 -2 -17 -6 -25 -9 -44 -17 -137 -49
-150 -53 -8 -2 -58 -15 -110 -29 -52 -14 -100 -27 -107 -28 -7 -2 -16 -6 -19
-10 -4 -4 -23 -7 -43 -7 -20 0 -54 -5 -76 -11 -91 -23 -113 -28 -165 -34 -30
-4 -58 -9 -63 -12 -4 -2 -35 -6 -70 -8 -34 -1 -78 -5 -97 -9 -19 -3 -63 -8
-98 -11 -35 -3 -71 -9 -81 -15 -10 -5 -21 -7 -24 -3 -3 3 -13 -2 -22 -11 -9
-9 -20 -14 -24 -11 -5 2 -16 -4 -26 -15 -10 -11 -22 -20 -28 -20 -20 0 -67
-64 -87 -118 -17 -45 -21 -71 -17 -125 2 -38 10 -74 16 -80 6 -6 11 -17 11
-24 0 -12 45 -89 75 -128 9 -11 39 -51 67 -90 29 -38 82 -100 118 -137 37 -38
64 -68 62 -68 -3 0 5 -9 18 -20 13 -11 27 -20 32 -20 4 0 8 -6 8 -13 0 -7 12
-20 27 -29 16 -9 44 -32 63 -50 19 -19 51 -45 70 -58 19 -13 37 -27 40 -30 3
-3 25 -21 50 -40 25 -19 48 -39 52 -45 4 -5 8 -6 8 -2 0 4 15 -3 33 -17 19
-15 39 -26 45 -26 7 0 20 -8 30 -17 17 -18 57 -40 157 -90 28 -14 62 -31 77
-39 14 -8 34 -14 45 -14 10 0 31 -7 47 -15 16 -9 52 -18 80 -20 71 -7 104 -22
159 -75 26 -25 51 -45 56 -45 5 0 26 -16 47 -35 22 -19 39 -33 39 -30 0 2 10
-2 22 -11 13 -9 20 -19 15 -23 -4 -4 -2 -7 3 -5 14 4 65 -22 65 -33 0 -5 4 -7
9 -3 5 3 12 1 16 -5 3 -5 22 -17 42 -26 37 -18 97 -90 87 -105 -3 -5 0 -9 6
-9 6 0 9 -4 5 -9 -3 -5 1 -15 8 -23 7 -7 30 -47 50 -87 21 -41 49 -89 62 -107
14 -18 25 -36 25 -41 0 -5 14 -23 30 -41 17 -18 30 -35 30 -37 0 -2 16 -20 35
-39 51 -53 48 -70 -15 -81 -18 -3 -38 -8 -43 -12 -5 -3 -33 -7 -62 -8 -29 -2
-57 -5 -62 -8 -4 -3 -30 -8 -58 -11 -27 -4 -59 -9 -70 -11 -11 -2 -58 -7 -105
-10 -47 -4 -87 -10 -90 -13 -3 -4 -18 -7 -35 -7 -16 0 -48 -3 -70 -7 -22 -4
-69 -10 -105 -14 -36 -3 -67 -9 -70 -12 -3 -4 -18 -7 -35 -6 -16 0 -49 -3 -73
-8 -23 -4 -66 -10 -95 -13 -48 -5 -146 -17 -157 -20 -3 -1 -32 -5 -66 -9 -33
-4 -66 -11 -74 -16 -14 -8 -20 -183 -19 -525 1 -215 0 -380 -3 -1004 -2 -438
0 -557 10 -567 10 -11 20 -10 53 1 23 8 45 13 49 10 5 -3 19 -1 32 4 13 5 45
12 72 15 27 4 53 9 58 12 4 3 22 7 40 9 18 2 96 16 173 30 77 15 158 29 180
32 22 3 48 9 57 14 9 5 60 14 113 19 54 6 101 12 106 15 4 3 27 8 49 10 22 2
44 6 48 9 5 3 30 7 56 10 26 4 64 13 84 22 20 9 60 18 87 19 53 2 133 13 215
30 14 3 41 7 62 9 20 2 47 10 60 17 12 7 24 11 26 10 1 -1 17 1 35 4 17 2 51
7 73 9 23 2 51 9 63 15 11 7 21 10 21 7 0 -3 14 -1 32 4 17 5 49 12 72 16 22
3 43 7 47 10 4 2 28 6 53 9 26 3 57 10 70 15 13 5 32 7 42 6 11 -2 30 1 44 6
14 5 45 11 70 14 25 2 60 9 77 13 18 5 41 8 50 6 10 -1 23 1 28 6 6 4 22 10
35 12 14 3 36 8 50 11 14 3 43 7 65 10 22 3 55 10 73 15 17 5 32 8 32 6 0 -3
12 0 27 6 16 6 55 13 88 15 33 3 67 7 75 10 8 3 41 8 72 11 49 5 58 3 58 -11
0 -9 -4 -16 -10 -16 -19 0 -25 -2 -62 -21 -21 -10 -48 -19 -60 -19 -13 0 -48
-9 -78 -21 -30 -11 -63 -22 -73 -24 -97 -21 -231 -75 -187 -75 5 0 29 -9 53
-19 23 -11 53 -21 67 -24 22 -4 152 -48 190 -64 8 -4 22 -8 30 -9 8 -1 33 -10
55 -20 22 -10 42 -18 45 -19 3 -1 19 -5 35 -10 17 -4 39 -14 50 -21 11 -8 28
-14 39 -14 11 0 47 -11 81 -24 33 -14 76 -28 95 -31 19 -3 49 -14 65 -24 l30
-17 -1 -95 c0 -52 -4 -125 -8 -164 -4 -38 -9 -99 -11 -135 -1 -36 -6 -81 -9
-100 -11 -68 -18 -140 -31 -357 -3 -55 -8 -114 -10 -130 -8 -69 -18 -211 -17
-237 2 -36 8 -42 27 -26 8 7 15 9 15 4 0 -5 5 -1 11 9 6 9 14 15 20 12 5 -4 9
-1 9 5 0 6 15 17 33 25 17 8 48 28 67 45 58 50 60 51 60 43 0 -4 4 -3 8 2 4 6
36 35 72 65 72 61 214 204 263 264 18 22 43 51 57 65 14 14 26 31 27 36 2 9
33 51 59 79 5 6 13 19 17 29 3 9 11 17 17 17 5 0 10 5 10 11 0 6 13 29 28 52
15 23 33 54 40 70 6 15 16 27 22 27 6 0 9 4 5 9 -3 5 2 17 11 25 8 9 12 16 8
16 -3 0 0 7 7 16 7 9 14 23 16 32 1 9 7 18 12 20 6 2 11 12 11 23 0 10 3 19 8
19 4 0 12 15 18 33 7 17 21 57 34 87 23 59 23 59 34 105 4 17 10 37 13 45 3 8
7 28 9 43 1 16 9 45 17 65 8 21 12 43 10 50 -3 6 0 12 7 12 6 0 9 4 6 9 -3 4
23 38 58 75 35 36 61 66 59 66 -3 0 19 24 48 54 30 29 70 72 89 96 19 23 49
57 65 74 17 18 48 54 69 81 22 28 50 59 62 70 12 12 24 30 26 40 3 18 -4 20
-49 23 -38 2 -53 7 -53 18 0 7 3 14 8 15 15 1 47 8 71 15 14 4 37 8 51 9 14 1
41 5 60 10 44 11 42 11 60 18 8 3 44 8 80 11 36 3 98 12 139 21 40 9 103 18
140 21 36 4 73 10 82 15 9 4 18 6 21 4 3 -3 29 0 59 5 30 6 71 13 92 15 21 2
41 7 46 9 5 3 26 8 47 12 84 13 77 -31 70 478 -9 675 -7 1030 8 1054 4 7 15
12 25 12 21 0 197 -55 223 -70 30 -17 121 -51 151 -56 25 -5 27 -3 22 18 -3
13 -7 44 -10 70 -2 26 -10 67 -16 90 -7 24 -12 46 -11 51 1 4 -3 7 -10 7 -6 0
-9 3 -5 6 3 4 0 19 -8 34 -8 15 -11 30 -8 34 4 3 0 6 -7 6 -7 0 -11 3 -7 6 3
3 -3 23 -14 44 -11 20 -22 47 -24 59 -2 12 -13 34 -24 50 -12 16 -21 33 -21
37 0 5 -18 34 -40 65 -22 32 -40 60 -40 63 0 7 -39 54 -62 75 -10 8 -18 20
-18 26 0 5 -18 30 -40 54 -22 24 -40 48 -40 53 0 5 -4 6 -10 3 -5 -3 -10 -2
-10 3 0 11 -88 100 -132 134 -17 12 -37 29 -44 36 -7 6 -16 12 -21 12 -5 0
-16 8 -25 18 -20 21 -34 31 -73 56 -63 40 -69 52 -85 165 -6 41 -15 81 -22 88
-6 7 -8 16 -5 20 3 3 0 18 -8 33 -18 34 -46 111 -47 128 -1 6 -5 12 -9 12 -5
0 -19 35 -16 43 0 1 -12 21 -26 44 -15 23 -28 48 -29 55 -2 7 -11 21 -20 32
-10 11 -18 25 -18 32 0 6 -7 15 -16 18 -9 3 -14 12 -12 18 3 7 -6 23 -19 36
-22 22 -28 36 -23 57 1 6 -2 7 -5 3 -7 -7 -45 33 -45 46 0 7 -3 11 -43 57 -12
14 -42 50 -67 79 -25 29 -83 92 -130 139 -46 47 -83 89 -82 94 1 4 -4 7 -11 7
-6 0 -37 24 -68 53 -82 76 -120 107 -131 107 -13 0 -38 26 -33 34 3 3 2 4 -2
1 -3 -3 -15 2 -25 12 -10 9 -18 13 -18 9 0 -4 -12 5 -27 19 -15 14 -32 25 -36
25 -5 0 -22 9 -38 21 -16 11 -29 17 -29 13 0 -3 -7 0 -16 7 -9 7 -24 14 -34
16 -34 5 -98 38 -112 57 -17 24 22 226 44 226 4 0 7 3 6 8 -4 16 23 92 33 92
6 0 8 4 5 8 -6 11 17 79 32 94 7 7 12 15 12 19 0 8 52 92 112 180 20 30 55 74
77 99 23 24 41 47 41 51 0 6 -44 21 -52 18 -2 0 -16 4 -31 10 -15 6 -46 13
-69 16 -22 3 -43 7 -47 9 -3 2 -27 7 -51 11 -25 3 -52 8 -60 10 -8 2 -42 6
-75 10 -33 3 -73 8 -90 12 -42 9 -312 10 -360 1z"/>
</g>
</svg>
